<?xml version="1.0" encoding="iso-8859-1"?>
<!-- Generator: Adobe Illustrator 19.0.0, SVG Export Plug-In . SVG Version: 6.00 Build 0)  -->
<svg version="1.1" id="Layer_1" xmlns="http://www.w3.org/2000/svg" xmlns:xlink="http://www.w3.org/1999/xlink" x="0px" y="0px"
	 viewBox="0 0 512 512" style="enable-background:new 0 0 512 512;" xml:space="preserve">
<g>
	<g>
		<path d="M386.008,144.585l-61.766-52.508c-2.676-2.275-6.373-2.924-9.664-1.695c-3.29,1.228-5.658,4.143-6.187,7.615
			l-10.489,68.726H48.439c-4.469,0-8.359,3.057-9.414,7.4L0.274,333.643c-0.701,2.888-0.039,5.938,1.798,8.275
			c1.837,2.337,4.644,3.701,7.616,3.701h70.567c5.35,0,9.688-4.338,9.688-9.688s-4.338-9.688-9.688-9.688H22.01l34.044-140.144
			h250.168c4.786,0,8.855-3.495,9.577-8.227l9.123-59.785l48.535,41.259c4.077,3.464,10.192,2.968,13.656-1.106
			C390.579,154.164,390.083,148.05,386.008,144.585z"/>
	</g>
</g>
<g>
	<g>
		<path d="M508.587,248.788l-92.958-79.023c-4.077-3.466-10.191-2.97-13.656,1.106c-3.466,4.077-2.97,10.19,1.106,13.656
			l83.223,70.747L283.096,392.163l8.359-54.772c0.426-2.793-0.388-5.63-2.228-7.773c-1.841-2.143-4.525-3.375-7.348-3.375H119.005
			c-5.35,0-9.688,4.338-9.688,9.688c0,5.35,4.338,9.688,9.688,9.688h151.594l-9.99,65.462c-0.58,3.801,1.143,7.587,4.392,9.645
			c1.585,1.004,3.385,1.505,5.185,1.505c1.89,0,3.778-0.553,5.412-1.653l232.127-156.37c2.514-1.693,4.091-4.467,4.26-7.493
			C512.154,253.687,510.897,250.752,508.587,248.788z"/>
	</g>
</g>
<g>
</g>
<g>
</g>
<g>
</g>
<g>
</g>
<g>
</g>
<g>
</g>
<g>
</g>
<g>
</g>
<g>
</g>
<g>
</g>
<g>
</g>
<g>
</g>
<g>
</g>
<g>
</g>
<g>
</g>
</svg>
