<svg width="309.395px" height="309.395px" viewBox="0 -0.01 309.395 309.395" xmlns="http://www.w3.org/2000/svg">
  <g id="search" transform="translate(-481.548 -3672.473)">
    <path id="Path_27" data-name="Path 27" d="M782.649,3919.773l-53.462-53.462a28.306,28.306,0,0,0-38.278-1.617L673.5,3847.286a107.7,107.7,0,1,0-17.134,17.132l17.408,17.409a28.3,28.3,0,0,0,1.618,38.276l53.463,53.461a28.319,28.319,0,0,0,40.046,0l13.747-13.747a28.314,28.314,0,0,0,0-40.044ZM530.227,3839.2a83.479,83.479,0,1,1,59.026,24.448A82.932,82.932,0,0,1,530.227,3839.2Zm235.29,103.485L751.77,3956.43a4.088,4.088,0,0,1-5.78,0l-53.465-53.462a4.085,4.085,0,0,1,0-5.777l13.748-13.749a4.091,4.091,0,0,1,5.78,0l53.463,53.462a4.087,4.087,0,0,1,0,5.778Z" fill="#453c5c"/>
  </g>
</svg>
